/* XPM */
static const char *player_01[] = {
/* columns rows colors chars-per-pixel */
"96 96 12 1 ",
"  c #2B2928",
". c #705030",
"X c #B07040",
"o c #C88850",
"O c #5A7B94",
"+ c #4058C0",
"@ c #6098E8",
"# c #F8C090",
"$ c #8CADC6",
"% c #B5D6DE",
"& c white",
"* c #3D253B",
/* pixels */
"************************************************************************************************",
"************************************************************************************************",
"************************************************************************************************",
"************************************************************************************************",
"************************************************************************************************",
"************************************************************************************************",
"************************************************************************************************",
"************************************************************************************************",
"************************************************************************************************",
"************************************************************************************************",
"************************************************************************************************",
"************************************************************************************************",
"************************************************************************************************",
"************************************************************************************************",
"************************************************************************************************",
"************************************************************************************************",
"************************************************************************************************",
"************************************************************************************************",
"************************************************************************************************",
"************************************************************************************************",
"************************************************************************************************",
"************************************************************************************************",
"************************************************************************************************",
"************************************************************************************************",
"************************************************************************************************",
"************************************************************************************************",
"************************************************************************************************",
"************************************************************************************************",
"************************************************************************************************",
"************************************************************************************************",
"************************************************************************************************",
"************************************************************************************************",
"************************************************************************************************",
"************************************************************************************************",
"************************************************************************************************",
"************************************************************************************************",
"************************************************************************************************",
"************************************************************************************************",
"************************************************************************************************",
"************************************************************************************************",
"************************************************************************************************",
"************************************************************************************************",
"************************************************************************************************",
"************************************************************************************************",
"************************************************************************************************",
"************************************************************************************************",
"************************************************************************************************",
"************************************************************************************************",
"*********************************      *********************************************************",
"*********************************      *********************************************************",
"*********************************      *********************************************************",
"*********************************   &&&   ******************************************************",
"*********************************   &&&   ******************************************************",
"*********************************   &&&   ******************************************************",
"*********************************   $$$&&&   ***************************************************",
"*********************************   $$$&&&   ***************************************************",
"*********************************   $$$&&&   ***************************************************",
"*********************************   $$$%%%            ******************************************",
"*********************************   $$$%%%            ******************************************",
"*********************************   $$$%%%            ******************************************",
"*********************************   $$$&&&$$$%%%&&&$$$   ***************************************",
"*********************************   $$$&&&$$$%%%&&&$$$   ***************************************",
"*********************************   $$$&&&$$$%%%&&&$$$   ***************************************",
"*********************************   $$$&&&%%%%%%%%%&&&$$$   ************************************",
"*********************************   $$$&&&%%%%%%%%%&&&$$$   ************************************",
"*********************************   $$$&&&%%%%%%%%%&&&$$$   ************************************",
"*********************************   $$$%%%OOOOOOOOOOOOOOOOOO   *********************************",
"*********************************   $$$%%%OOOOOOOOOOOOOOOOOO   *********************************",
"*********************************   $$$%%%OOOOOOOOOOOOOOOOOO   *********************************",
"*********************************   $$$%%%ooo   oooooo      ************************************",
"*********************************   $$$%%%ooo   oooooo      ************************************",
"*********************************   $$$%%%ooo   oooooo      ************************************",
"*********************************   $$$$$$ooo############   ************************************",
"*********************************   $$$$$$ooo############   ************************************",
"*********************************   $$$$$$ooo############   ************************************",
"******************************   $$$%%%%%%%%%############   ************************************",
"******************************   $$$%%%%%%%%%############   ************************************",
"******************************   $$$%%%%%%%%%############   ************************************",
"*********************************   ...XXX@@@@@@@@@@@@@@@   ************************************",
"*********************************   ...XXX@@@@@@@@@@@@@@@   ************************************",
"*********************************   ...XXX@@@@@@@@@@@@@@@   ************************************",
"*********************************   ...XXX+++@@@@@@@@@      ************************************",
"*********************************   ...XXX+++@@@@@@@@@      ************************************",
"*********************************   ...XXX+++@@@@@@@@@      ************************************",
"************************************   ...      %%%%%%+++...   *********************************",
"************************************   ...      %%%%%%+++...   *********************************",
"************************************   ...      %%%%%%+++...   *********************************",
"*********************************   ......++++++@@@@@@......   *********************************",
"*********************************   ......++++++@@@@@@......   *********************************",
"*********************************   ......++++++@@@@@@......   *********************************",
"*********************************   XXXXXX            XXXXXX   *********************************",
"*********************************   XXXXXX            XXXXXX   *********************************",
"*********************************   XXXXXX            XXXXXX   *********************************",
"************************************************************************************************",
"************************************************************************************************",
"************************************************************************************************"
};
