/* XPM */
static char *dummy[]={
"96 96 45 1",
". c #3D253B",
"# c #150606",
"e c #1b0907",
"c c #1c0908",
"v c #211611",
"g c #260d0a",
"b c #271510",
"f c #2b0f0b",
"F c #2e100c",
"M c #35130d",
"D c #37140e",
"w c #3a150f",
"n c #3c150f",
"l c #4b1e12",
"a c #53130c",
"j c #57140c",
"o c #5c150b",
"I c #693019",
"N c #7c3c1d",
"m c #821c07",
"h c #881d06",
"z c #901f05",
"p c #9a2104",
"d c #bb2b01",
"k c #c53f05",
"s c #c84406",
"r c #d65f0c",
"C c #da670e",
"u c #e17411",
"q c #e88c1d",
"Q c #ea9321",
"t c #ec9924",
"A c #ed9f27",
"y c #f3b433",
"P c #f6bf39",
"B c #f7c33b",
"E c #fcd545",
"x c #fedd4a",
"K c #ffe050",
"L c #ffe56c",
"J c #ffe673",
"H c #ffe77a",
"O c #ffe986",
"G c #ffed9b",
"i c #ffffff",
"................................................................................................",
"................................................................................................",
"................................................................................................",
"................................................................................................",
"................................................................................................",
"................................................................................................",
"................................................................................................",
"................................................................................................",
"................................................................................................",
"................................................................................................",
"................................................................................................",
"................................................................................................",
"................................................................................................",
"................................................................................................",
"................................................................................................",
"................................................................................................",
"................................................................................................",
"................................................................................................",
"................................................................................................",
"................................................................................................",
"................................................................................................",
"................................................................................................",
"................................................................................................",
"................................................................................................",
"................................................................................................",
"................................................................................................",
"................................................................................................",
"................................................................................................",
"................................................................................................",
"................................................................................................",
"................................................................................................",
"................................................................................................",
"................................................................................................",
"................................................................................................",
"................................................................................................",
"................................................................................................",
"................................................................................................",
"................................................................................................",
"................................................................................................",
"................................................................................................",
"................................................................................................",
"................................................................................................",
".....................................................##.........................................",
".................................aa.................##..........................................",
"................................aaaa...............###..........................................",
"...............................aaaaa...............##......................b....................",
"...............................aaaaa............c..#............................................",
"................................aaaa...........ccc.#............................................",
"...............................................cccc.ddddd.......................................",
"...............................................ccc.ddddddd......................................",
"..............................................cccc.ddddddd......................................",
"..............................................cccccddddddd......................................",
"..............................................cccc#ddddddd......................................",
".............................................ceccc#ddddddd......................................",
"............................................f.ecgc#.ddddd.......................................",
"...........................................ff.egg##.............................................",
"..........................................ffffegghh.............................................",
"..........................................ffffeghhhh............................................",
"..........................................ffffehhhhh............................................",
"..........................................ffffghhhhh............................................",
".........................................fffffgghhhh............................................",
".........................................fffffggccc.............................................",
".........................................fffffggccc.............................................",
".........................................fffffggccccc.i.......jjjj..............................",
".........................................fffffggcccckki.......jjjjj.............................",
"........................................fffffllgcckkkkik......jjjjj.............................",
"........................................ffffmmmmgckkkkik......jjjjj.............................",
"........................................fffmmmmmnkkkkkkk.......jjj..............................",
".......................................ffffmmmmmmkkkkkkk.....o..................................",
".....................................ppffffmmmmmmnkkkkkk....oooo................................",
"....................................ppppfffmmmmmnnkqqqqk...ooooo................................",
"...................................pppppfffflrrrrrrqqqqq....ossss...............................",
"...................................pppppffffrrrrrtttuuqqq...ssssss..............................",
"....................................ppppffffrrrttttttuqqqq..ssssss..............................",
"....................................ffffffnnrrrtttttttuqqq..ssssss..............................",
".....................................fffffllrrtttttttttuqq..ssssss..............................",
"....................................ffffvnllrrtttttttttuqq...ssss...............................",
"....................................wwwwnlllrxxxxittyyyyyy......................................",
"....................................w.nlllzxxxxxxixyyyyyyy......................................",
".....................................nnllAAxxxxxxixxyyyBBBBBBB..................................",
"....................................nlllAAxxxxxxiixxxyBBBBBBBBB.................................",
"....................................nllCAAxxxxxxiixxxBBBBBBBBBB.................................",
"...................................DllCAAAxxxxxxiixxxEBBBBBBBBBB................................",
"...................................DFFCAAAxxxxxxxiGGGGEBBBBBBBBB................................",
".................................FFFFFCAAAAxxxxiHiGGGGGEBBBBBBBB................................",
"................................FFFIIICAAAAxxHHHHHHJJJJGBBBBBBBB................................",
"................................FFFIIICCAAAAxHHKKKJJJJJJLLBBBBB.................................",
"................................FIIIIIICCAAAHKKKKKJJJJJJLLLLBBB.................................",
"..................................IIIIIIMNAHOOOOOKJJJJJJLLLLLBB.................................",
"......................................FMhAAOOOOOOOJJJJJJLLLLLFFF................................",
"......................................FMAAHOOOOOOOKJJJJJLLLLLFFF................................",
"......................................FFAAHOOOOOOOKKKKLLLLLLLFFF................................",
".......................................FAAHOOOOOOOKKKKLLLLLLLF.F................................",
".......................................FAAAOOOOOOOKKKKLLLLLLP...................................",
"........................................AAAHOOOOOKKKKKLLLLLPP...................................",
"........................................AAAQHHKKKKKKKPPPPPPPP..................................."};
