/* XPM */
static char *dummy[]={
"96 96 54 1",
". c #3D253B",
"a c #150606",
"j c #180707",
"k c #1f0a08",
"d c #220b09",
"g c #250c0a",
"c c #2a0e0b",
"o c #2d1410",
"e c #32110d",
"n c #35130d",
"b c #38120f",
"C c #3b150f",
"K c #481c12",
"i c #4f120d",
"l c #522214",
"U c #582615",
"f c #63160a",
"# c #65170a",
"N c #672f19",
"Q c #70341b",
"q c #821c06",
"L c #901f05",
"p c #9f2203",
"s c #a92402",
"m c #c03503",
"h c #c33b04",
"W c #c53d05",
"Z c #c74206",
"u c #c94707",
"X c #cb4b08",
"P c #d0530a",
"z c #d6600d",
"A c #d9650e",
"v c #dd6d0f",
"t c #e17411",
"r c #e68519",
"T c #e7881a",
"w c #e9901f",
"x c #ec9823",
"B c #efa52b",
"y c #f2b031",
"V c #f5b936",
"J c #f8c63d",
"G c #facb40",
"M c #fbd042",
"I c #fdd847",
"F c #fedb49",
"E c #ffde4b",
"Y c #ffe469",
"H c #ffe56f",
"O c #ffeea2",
"R c #fff3b9",
"S c #fff4c2",
"D c #ffffff",
"................................................................................................",
"................................................................................................",
"................................................................................................",
"................................................................................................",
"................................................................................................",
"................................................................................................",
"................................................................................................",
"................................................................................................",
"................................................................................................",
"................................................................................................",
"................................................................................................",
"................................................................................................",
"................................................................................................",
"................................................................................................",
"................................................................................................",
"................................................................................................",
"................................................................................................",
"................................................................................................",
"................................................................................................",
"................................................................................................",
"................................................................................................",
"................................................................................................",
"................................................................................................",
"................................................................................................",
"................................................................................................",
"................................................................................................",
"................................................................................................",
"................................................................................................",
"................................................................................................",
"................................................................................................",
"................................................................................................",
"................................................................................................",
"................................................................................................",
"................................................................................................",
"................................................................................................",
"................................................................................................",
"................................................................................................",
"....................................................####........................................",
"....................................................#####.......................................",
"....................................................#####.......................................",
"....................................................####........................................",
".....................................................##.........................................",
"................................................................................................",
"................................................................................................",
"................................................................................................",
"................................................................................................",
"..........................................a.....aabb............................................",
"...........................................a.a.aaabb............................................",
"..........................................aaaa..aa..............................................",
"...........................................aaa.cac..............................................",
"...........................................aaa.cc...............................................",
"..........................................aaaaccc...............................................",
"..........................................aaaaccc...............................................",
"..........................................daacccc...............................................",
".........................................daaaaccc...............................................",
".........................................daaaaccc...............................................",
".........................................daaaacec...fff.........................................",
".........................................daaacecc..ffff.........................................",
".........................................daaaceec.afffff........................................",
".........................................daaaeeccaaffff.........................................",
"........................................daaaaeee.aaa.f..........................................",
"........................................daaaaeeegghhh...........................................",
"........................................ddaddeeehhhhhh..........................................",
"........................................ddadeeeehhhhhhh.........................................",
"........................................ddddeeehhhhhhhh.........................................",
".......................................ddddeeeehhhhhhhh...........iii...........................",
".......................................ddddeeeehhhhhhhh...........iii...........................",
".......................................dddjdeeeehhhhhhh...........iii...........................",
"......................................ddddjjeeeklhmmhhn.........................................",
".....................................ddddddgeeelmmmmmnnn.o......................................",
".....................................dddddjeleeemmmmmmnng.......................................",
"....................................ddbbdpppppqmmmmmmmnng.......................................",
".....................................dbbppppppprrrmmmmnngg......................................",
"......................................dbppppprrrrrrrmmnssgg.....................................",
".....................................d.jppttttuuvvvuttssssg.....................................",
"......................................jjpttttuuvvvvwwwtsssg.....................................",
".....................................jjgptttxxxxxxxwyyyyssgg....................................",
".....................................jzzzttxxxxxxxyyyyyyyygg....................................",
"....................................jzzzztxxxxxxxxyyyyyyyyyAA...................................",
"....................................zzzzztxxxxxxxyyyyyyyyyyABBB.................................",
"..................................CCzzzzztxxxxxxxyyyyyyyDyyBBBBB................................",
".................................CCCzzzzzzxEEFFFFFFyyyyDyyyBBBBBB...............................",
"................................CCCCCzzzzEEEGGHHHFFxxxDyyyyBBBBBB...............................",
"................................CCCCCCzzEEGGHHHHHHIIIDIJJyyBBBBBB...............................",
"................................CCCCCCKLEEGGHHHHHIIIIIIIJJMBBBBB................................",
"......................................NEEGOOOOOOHIIIIIIIJJMMBBBP................................",
"......................................QEEOOOOOOOOIIIIIIIJJJMMAPP................................",
"......................................QEEOOOOOOOOOIIOOOIJJJMMPP.................................",
"......................................QQEOOOOOOOOORSSSOOJJJMMT..................................",
"......................................QQEOOOOOOOOORRRSSOOJJMMT..................................",
".....................................UUQQOOOOOOOOORRRSSSOJVVTT..................................",
"....................................UUUUUOOOOOOOORRRRRSSOJVVTT..................................",
"...................................UUUUUUWOOOOOORRRRRRSSJJVTTlll................................",
"..................................UUUUUUUWWOOOORRRRRRRSSHVVTTllll...............................",
"..................................UUUUUUUWWWSSRRRRRRRSSHVTTXlllll...............................",
"..................................UUUUUUUWWWWSRDDDDDRYZXXXllllll................................"};
