/* XPM */
static char *dummy[]={
"96 96 48 1",
". c #3D253B",
"a c #150606",
"d c #180707",
"b c #1a0807",
"q c #240c09",
"g c #281510",
"c c #33130f",
"e c #35130d",
"M c #38140e",
"# c #39120f",
"B c #3e1610",
"C c #431911",
"k c #451a11",
"R c #5f2a17",
"n c #60160b",
"l c #721908",
"f c #881e06",
"F c #901f05",
"w c #962004",
"L c #af2501",
"p c #b22601",
"i c #bb2b01",
"j c #c13703",
"P c #c33a04",
"m c #cb4b08",
"K c #cf5209",
"u c #d45b0b",
"r c #d9650e",
"y c #de6f10",
"t c #e17411",
"s c #e37912",
"D c #e68217",
"o c #efa42a",
"v c #f2b031",
"G c #f7c13a",
"H c #ffde4b",
"z c #ffe25e",
"x c #ffe469",
"A c #ffe56f",
"J c #ffe673",
"S c #ffeea2",
"T c #ffefa8",
"E c #fff0ad",
"Q c #fff3b9",
"N c #fff3bd",
"O c #fff6cb",
"I c #fff6cd",
"h c #ffffff",
"................................................................................................",
"................................................................................................",
"................................................................................................",
"................................................................................................",
"................................................................................................",
"................................................................................................",
"................................................................................................",
"................................................................................................",
"................................................................................................",
"................................................................................................",
"................................................................................................",
"................................................................................................",
"................................................................................................",
"................................................................................................",
"................................................................................................",
"................................................................................................",
"................................................................................................",
"................................................................................................",
"................................................................................................",
"................................................................................................",
"................................................................................................",
"................................................................................................",
"................................................................................................",
"................................................................................................",
"................................................................................................",
"................................................................................................",
"................................................................................................",
"................................................................................................",
".......................................................#........................................",
"......................................................###.......................................",
".......................................................##.......................................",
"................................................................................................",
"................................................................................................",
"................................................................................................",
"................................................................................................",
"................................................................................................",
"................................................................................................",
"................................................................................................",
"................................................................................................",
"................................................................................................",
"................................................................................................",
"................................................................................................",
"................................................................................................",
".................................................a..............................................",
".........................................a......aa..............................................",
"........................................aaaa...aaaa.............................................",
".......................................aaaaaa...aaa.............................................",
"........................................aaaaaa.aaa..............................................",
"........................................aaaaa..baaa.............................................",
".........................................aaaaabbba..............................................",
".........................................aaaa.bbba..............................................",
".........................................aaaabbbba..............................................",
".........................................aaaabbbb...cc..........................................",
".........................................aaaabbbb.ddcc..........................................",
".........................................aaaabbbb.ddddd.........................................",
".........................................aaaabbb.dddddd.........................................",
".........................................aaaccbbeefffdd.........................................",
".........................................aaaccbbefffffdd........................................",
".........................................aaaccbdfffffff.........................................",
".........................................aaacccdfffffff.........................................",
".........................................aacccbefffffff.........................................",
".........................................aacccbeefffffd.........................................",
"........................................aaacccbeeefffdd.............g...........................",
".........................................a.ccceeeeeeddd.....................h...................",
"..........................................cccceeeeeeiii...................h.....................",
"..........................................cccceeeeeiiiii.................h......................",
"..........................................cccc.eeeiiiiiii...............h.......................",
".........................................jjjjjjekkiiiiiii..............h........................",
"........................................jjjjjjjjkkiiiiiii.......................................",
"........................................jjjjjjjjjkliiiii........mmmmm...........................",
"........................................jjjjjjjjjllliii.........mmmmm...........................",
"........................................jjjjjjjjjnnllaa.........mmmmm...........................",
"........................................jjjoooooonnnppppp.......mmmmm...........................",
".......................................qjjoooooooonnnprrrr......mmmmm...........................",
"......................................qqsjooooooooonrrrrrrrr....................................",
".....................................qqqttttooooooourrrrrrrr....................................",
"...................................qqqttttttttooooorrrrrrrrrr...................................",
"..................................qqqqtttttttttoooorrrrvvvvrrww.................................",
"................................qqqqqtttttttttxxxoyrrrvvvvvvrwww................................",
"................................qqqqqtttttttxxxxxxxrrvvvvvvvvwwww...............................",
"...............................qqqqqqtttttttxxxxxzzzzvvvvvvvvwwww...............................",
"...............................qqqqqqttttttxxxAAzzzzzzzvvvvvvwwww...............................",
"..................................qqqBtttttxAAAzzzzzzzzzvvvvvwww................................",
".....................................BtttttAAAzzzzzzzzzzzvvvvww.................................",
"....................................BCDttttAAAzzzzzEEEzzzvvvvFF.................................",
"....................................CCDDGHAAAAIIIEEEEEEEzJvvFFF.................................",
"...................................CCCCHHHAAIIIIIIEEEEEEEJKLLF..................................",
"..................................MMCCHHHHNNIIIIIIIEEEEEEJKLL...................................",
".................................MMMMCHHHHNIIIIIIIOOOOOEEJKLLLc.................................",
"................................MMMMMHHHHHNIIIIIIOOOOOOOEJKLLLccc...............................",
"................................MMMMMHHHHHNIIIIIIOOOOOOOEKPPLcccc...............................",
"................................MMMMMHHHHHHNIIQQQQQOOOOOEPPPLRcccc..............................",
"................................MMMMMHHHHHHJSQQQQQQQOOOOEPPRRRRcccc.............................",
"................................MMMMMMHHHHHJIQQQQQQQOOOOPPRRRRRRcc..............................",
"................................MMMMMMMHHHHIIQQQQQQQOOOIcRRRRRRc................................",
".................................MMMMMMMhHHIIQQQQQQQTTIaaacRRcc................................."};
