/* XPM */
static char *dummy[]={
"96 96 45 1",
". c #3D253B",
"# c #150606",
"f c #1c0908",
"b c #250c0a",
"h c #2a0e0b",
"d c #2b1410",
"g c #32110d",
"c c #34130f",
"B c #38120f",
"j c #39140e",
"J c #3c150f",
"u c #3e110e",
"O c #3f1710",
"G c #431911",
"y c #461b11",
"n c #491d12",
"w c #532314",
"r c #5f2a17",
"a c #771a08",
"L c #7d3d1e",
"p c #881d06",
"k c #921f05",
"l c #a42302",
"i c #b32601",
"A c #b52601",
"m c #c13603",
"e c #cb4b08",
"o c #da670e",
"v c #e17411",
"t c #e88c1d",
"C c #ea9321",
"s c #ed9f27",
"x c #f3b232",
"Q c #f7c33b",
"z c #f8c73e",
"N c #facb40",
"D c #feda48",
"M c #ffe050",
"I c #ffe25b",
"E c #ffe56c",
"P c #ffe77a",
"F c #ffe880",
"K c #ffed98",
"H c #ffeea2",
"q c #ffffff",
"................................................................................................",
"................................................................................................",
"................................................................................................",
"................................................................................................",
"................................................................................................",
"................................................................................................",
"................................................................................................",
"................................................................................................",
"................................................................................................",
"................................................................................................",
"................................................................................................",
"................................................................................................",
"................................................................................................",
"................................................................................................",
"................................................................................................",
"................................................................................................",
"................................................................................................",
"................................................................................................",
"................................................................................................",
"................................................................................................",
"................................................................................................",
"................................................................................................",
"................................................................................................",
"................................................................................................",
"................................................................................................",
"................................................................................................",
"................................................................................................",
"................................................................................................",
"................................................................................................",
"................................................................................................",
"................................................................................................",
"................................................................................................",
"................................................................................................",
"................................................................................................",
"................................................................................................",
"................................................................................................",
"................................................................................................",
"................................................................................................",
"................................................................................................",
"................................................................................................",
"................................................................................................",
"................................................................................................",
"..............................................#.................................................",
"....................................................#####.......................................",
"...................................................#####........................................",
"..................................................######........................................",
"..................................................#####.........................................",
"..................................................####..........................................",
"..................................aaaa............###...........................................",
".................................aaaaaa..........b##.....................c......................",
".................................aaaaaa........bbb##............................................",
".................................aaaaaa.......bbbb#.............................................",
".................................aaaaaa.......bbbb.d............................................",
"..................................aaaa.......#bbbb#.eee.........................................",
"..............................................bbbbeeeeee........................................",
"..............................................bbfbeeeeeee.......................................",
"..............................................bffeeeeeeee.......................................",
".............................................bbfgeeeeeeee.......................................",
".............................................bbggeeeeeeee.......................................",
".............................................hhgg#eeeeeee.......................................",
".............................................hggg##eeeeec.......................................",
".............................................hggiiii............................................",
"...........................................jjhgiiiii............................................",
"..........................................jjjhgiiiiii...........................................",
"..........................................jjjhgiiiiii.......kkkkkk..............................",
"..........................................jjllliiiii........kkkkkk..............................",
".........................................jjlllllgiih........kkkkkkk.............................",
".........................................jlllllllhhh........kkkkkkk.............................",
"........................................jjlllllllhhhhh......kkkkkkk.............................",
"....................................mmmmjjlllllllnooooo....pkkkkkk..............................",
"...................................mmmmmjjjllllllooooooo...pppkkk...............................",
"...................................mmmmmmjjjllllnooooqooo..pppppp...............................",
"...................................mmmmmmjjjjrhhnooooqooo..ppppp................................",
"...................................mmmmmjjjjrrhnnssssqooo....pp.................................",
".....................................mmjjjjjrrrttttssqsoh.......................................",
".....................................jjjjjjjrttttttttqssu....vv.................................",
"....................................jjjjjjwjwttttttttqssxu.vvvvvv...............................",
"....................................yjjjjdwrttttzzztttssxu.vvvvvv...............................",
"...................................yjjjwAAAAttzzzzzzssssxxvvvvvvv...............................",
"....................................yyywAAAAttzzzzzzzsssxxvvvvvvv...............................",
".....................................wwBAAAAtzzzzzzzzzssxx.vvvvvv...............................",
".................................q...wrCCCCCAzzzzzzzzzssxx.vvvvvv...............................",
"..................................q.wrCCCCCCDDDzzzEEEEEFFFF.....................................",
"...................................qGwCCCCCDHHHHHHEEEFFFFFFFF...................................",
"...................................GqGCCCCDHHHHHHHHIEFFFFFFFFF..................................",
"...................................JJJCCCCDHHHHHHHHHIFFFFFFFFF..................................",
".................................JJJJJCCCCDHHHHHHHHHIKFFFFFFFF..................................",
"...............................JJJJJLLLCCCMHHHHHHHHHIHFFFFFFFF..................................",
"................................JJJJLLLGCNMHHHHHHHHHIHHFFFFFFF##................................",
"................................JJJJLLLONNMHHHHHHHHIHHHFFFFFFF###...............................",
"..................................JJJ..NNNMMHHHHHHHHHHHFFFFFFJJ##...............................",
"......................................NNNNNMMHHHHHHHHHHFFFFFJJJJ................................",
"......................................NNNNNMMMMMHHHHHHHPPPPPJJJJJ...............................",
"......................................NNNNNQMMMMMHHHHHPPPPPPJJJJ................................",
"......................................NNNNNQQQMMMMMMPPPPPPPPJJ..................................",
".......................................NNNNQQQQMMMMPPPPPPPPP...................................."};
