/* XPM */
static char *dummy[]={
"96 96 50 1",
". c #3D253B",
"a c #150606",
"l c #180707",
"d c #1f0a08",
"n c #200a09",
"i c #211611",
"c c #240c09",
"p c #271510",
"h c #2a0e0b",
"e c #2c0f0b",
"m c #2e100c",
"b c #32130f",
"r c #34130f",
"j c #3f110e",
"k c #481c12",
"f c #4c120d",
"P c #4f2013",
"# c #53130c",
"L c #652e18",
"t c #6b1809",
"q c #7f1c07",
"S c #85411f",
"w c #942004",
"o c #b32601",
"g c #bb2b01",
"U c #bf3303",
"V c #c13603",
"J c #c53f05",
"A c #cd4e09",
"z c #ce5109",
"s c #d65f0c",
"O c #dc6c0f",
"Q c #dd6e10",
"u c #e17411",
"v c #e47c14",
"y c #e88c1d",
"N c #eb9622",
"x c #ec9924",
"I c #f0a72c",
"E c #f3b433",
"H c #f6bf39",
"G c #f7c33b",
"C c #f8c73e",
"R c #fdd847",
"D c #feda48",
"F c #fedd4a",
"M c #ffe673",
"K c #ffe986",
"T c #ffeb8f",
"B c #ffffff",
"................................................................................................",
"................................................................................................",
"................................................................................................",
"................................................................................................",
"................................................................................................",
"................................................................................................",
"................................................................................................",
"................................................................................................",
"................................................................................................",
"................................................................................................",
"................................................................................................",
"................................................................................................",
"................................................................................................",
"................................................................................................",
"................................................................................................",
"................................................................................................",
"................................................................................................",
"................................................................................................",
"................................................................................................",
"................................................................................................",
"................................................................................................",
"................................................................................................",
"................................................................................................",
"................................................................................................",
"................................................................................................",
"................................................................................................",
"................................................................................................",
"................................................................................................",
"................................................................................................",
"................................................................................................",
"................................................................................................",
"................................................................................................",
"................................................................................................",
"................................................................................................",
"......................................................#.........................................",
".....................................................####.......................................",
"....................................................#####.......................................",
".....................................................####.......................................",
".....................................................###........................................",
"................................................................................................",
"................................................................................................",
"................................................................................................",
"................................................................................................",
"................................................................................................",
".................................................a..............................................",
"..................................................bb............................................",
"................................................aab.............................................",
".............................................a.ccc..............................................",
"........................................d..aa..ccc..............................................",
".........................................ddaaacccc..............................................",
".........................................ddaa.ccc...............................................",
".........................................ddaa.cccc..............................................",
".........................................ddaa.cccc..............................................",
".........................................ddaacecc...............................................",
".........................................daaa.eec...............................................",
".........................................daaa.eec...............................................",
".........................................ddadeeec...fff.........................................",
"........................................dddaeeee....ffff........................................",
"........................................ddadeeee....ffff........................................",
"........................................ddddeeee.....ff.........................................",
"........................................ddddeeeeggggg...........................................",
"........................................ddddeeeggggggg..........................................",
"........................................dddheeegggggggg.........................................",
"........................................dddheeegggggggg........i...j............................",
"........................................dddheeegggggggg...........jjj...........................",
".......................................ddddheeegggggggdd...........jj...........................",
".......................................ddddkkeelggggggmd........................................",
".......................................dddndkhekkgggmmmd........................................",
"......................................ddddnekhekkkooommd.p......................................",
".......................................ddddkkkekkooooommdd......................................",
"......................................ddddqqqklkooooooomdd......................................",
"......................................rr.qqssstkooooooomdd......................................",
"......................................r.qsssssssgguuuuumdd......................................",
"........................................qssssvvvvuuuuuuuddd.....................................",
"........................................sssvvvvvvvuuuuuuuwd.....................................",
"........................................ssvvvvvvvvvvxxxxuw......................................",
".......................................rssvvvvvvvvxxxxxxxxd...yyy...............................",
".....................................zzzzvvvvvvvvvxxxxxxxxxAAyyyyy..............................",
"...................................rzzzzzvvvvvvvvxxxxxxxxxBAyyyyyy..............................",
"..................................rrzzzzzvCCCDDDDxxxxxxxxBxAyyyyyy..............................",
"..................................rrzzzzCCCCDDDDDDvvvvEEBExAyyyyyy..............................",
"................................rrrrzzzCCCFFFFDDDDDGEEEEEEEAAyyyyy..............................",
"................................rrrrrzzCCFFFFFFFDHHHHHEEEEEEAAAA................................",
"................................rrrrrrCCFFFFFFFFFHHHHHHIIEEEAAAA................................",
"................................rrrrrrCFFFFFFFFFFFHFFFFFIIEEEAAJ................................",
"......................................CFFFFFFFFFFFFKKKKKFIEEEJJJ................................",
".....................................LCFFFFFFFFFFFKKKKKKKIIEEJJJ................................",
"....................................LLLFFFFFFFFFFFMMKKKKKKINEJJ.................................",
".....................................LLLFFFFFFFFFMMMMKKKKKINO...................................",
".....................................LLLFFFFFFFFFMMMMKKKKKINN...................................",
"...................................PPPPPPFFFFFFFMMMMMKKKKIINNk..................................",
"...................................PPPPPPPFFFFMMMMMMMKKKKINNOkkk................................",
"...................................PPPPPPPQMMMMMMMMMMKKRIINNOkkkk...............................",
"..................................PPPPPPPggKMMMMMMMMMRRINNOOOkkkk...............................",
"..................................PPPPPPPgggMBBBBBBMRRROOOOOSkkkk...............................",
"..................................PPPPPPPggggMMMMMMTRUVVVkkkkkkkh..............................."};
