/* XPM */
static char *dummy[]={
"96 96 60 1",
". c #3D253B",
"a c #160606",
"s c #1a0807",
"j c #1c0908",
"# c #211611",
"b c #220b09",
"U c #270d0a",
"p c #280e0a",
"i c #2d0f0c",
"J c #2f1410",
"g c #33120d",
"d c #37120f",
"c c #39120f",
"w c #3b150f",
"u c #3c150f",
"f c #3d110f",
"E c #3e1610",
"v c #481c12",
"C c #49110d",
"h c #53130c",
"t c #562515",
"M c #5a2716",
"4 c #5f2a17",
"l c #62160a",
"y c #721908",
"3 c #73371b",
"x c #7b1b07",
"F c #7d3d1e",
"B c #8c1e05",
"N c #9d2203",
"e c #ac2402",
"m c #c74206",
"o c #cf5209",
"D c #d0540a",
"n c #d45b0b",
"z c #de6f10",
"r c #e17411",
"k c #e37912",
"P c #e47e15",
"1 c #e7881a",
"I c #e9901f",
"G c #ec9a25",
"L c #ed9f27",
"O c #efa52b",
"A c #f1ab2e",
"Q c #facb40",
"5 c #fbd042",
"K c #fdd847",
"R c #fedb49",
"H c #ffe050",
"Y c #ffe469",
"2 c #ffe56f",
"V c #ffeea2",
"T c #ffefa8",
"X c #fff3b9",
"S c #fff4c2",
"Z c #fff5c5",
"0 c #fff5c9",
"W c #fff6cf",
"q c #ffffff",
"................................................................................................",
"................................................................................................",
"................................................................................................",
"................................................................................................",
"................................................................................................",
"................................................................................................",
"................................................................................................",
"................................................................................................",
"................................................................................................",
"................................................................................................",
"................................................................................................",
"................................................................................................",
"................................................................................................",
"................................................................................................",
"................................................................................................",
"................................................................................................",
"................................................................................................",
"................................................................................................",
".........................................................#......................................",
"................................................................................................",
"................................................................................................",
"................................................................................................",
"................................................................................................",
"................................................................................................",
"................................................................................................",
"................................................................................................",
"................................................................................................",
"................................................................................................",
"................................................................................................",
"................................................................................................",
"................................................................................................",
"................................................................................................",
"................................................................................................",
"................................................................................................",
"................................................................................................",
"................................................................................................",
"................................................................................................",
"................................................................................................",
"................................................................................................",
"................................................................................................",
"................................................................................................",
"................................................................................................",
"...............................................a................................................",
"................................................a...............................................",
"..............................................aa................................................",
".............................................aaa................................................",
".............................................aaa..aaaaaa........................................",
".............................................aaa..aaaaa.........................................",
".............................................aaa..aaaaaa........................................",
".............................................aaa.aaabaaa........................................",
".............................................aa..abbbaa.........................................",
".............................................aa.abbbbaa.........................................",
".............................................aa.abbbbaa.........................................",
".............................................a...bccba.dd.......................................",
".................................................bccc..ddd......................................",
".....................................eeffe.....gbbbca...d..............hh.......................",
"....................................eeffffe...aggbbb...................hhh......................",
"....................................eeffffe..agggbbb....................h.......................",
"....................................eeefffea.agggbbb............................................",
"....................................eeeeeeeaaaggibbb............................................",
"....................................eeeeeeeaaggiibbj............................................",
".....................................eeeeeaaaggiikkkkkk.........................................",
"..........................................a.agiikkkkkkkk........................................",
"..........................................a.agiikkkkkkkkk.......................................",
"..........................................a.agiikkkkkkkkkl......................................",
".........................................aammmmmkkkkkkkkkl......................................",
".........................................ammmmmmkkkkkkkkkl......................................",
".........................................ammmmmmknnkkkkkll......................................",
"..........................................mmmmmnnnnnnkk...ooooo.................................",
"..........................................mmmmmnnnnnnkp..ooooooo................................",
"..........................................mmmmnnnnnnnpp.ooooooooo...............................",
"......................................qrr.smmmnnnnnnnpp.ooooooooo...............................",
".....................................rqqrrssmmmnnnnnnpp.ooooooooo...............................",
"....................................rrrqqrrtuuvnnnnnnwccooooooooo...............................",
"....................................rrrrqrrtuuvxxxxxwwyyooooooooo...............................",
"....................................rrrrrrrttuxxxzzzzyyyyooooooo................................",
".....................................rrrrrrttgxxzzzAAAzBBBooooo.................................",
"......................................rrrrCDtExzzAAAAAAzBBy.....................................",
".....................................tCCCCCDDFzGHHHHAAAAzBy.....................................",
".....................................ttCCCCDDGHHHHHHqIAAzB..JJ..................................",
"....................................tttDDDDDDGHHHKKKqHIAzBw.J...................................",
".......................................DDDLLGHHKKKKKqKKIInw.g...................................",
"......................................MNDLLLGHHKKKKKqKKIIn.ggg..................................",
"....................................sMMNLLLOOHKKKKHHqKKKPn..gg..................................",
"...................................sMMMNLLOOOHKKKHHHqHKKQQQQQ...................................",
"...................................ssMMMLOOOOOKKHHHHqHHKQQQQQ...................................",
"..................................aassnnnORRRRKKSSSHHHHKQQQQQQ..................................",
".................................aaMMMnnnRRRRRRSSSSSTTHQQQQQQQ..................................",
".................................aMMMnnnnRRRRRSSSSTTTTTQQQQQQQUU................................",
"..................................MMMnnnnRRRRRSSTTTTTVVQQQQQQUUUU...............................",
"..................................MMMnnnnRqqqqqqqqWTXXVVYQQQUUUUUU..............................",
"..................................MMMnnnnRRRZS00WWWWXXXVPP1UUUUUUU..............................",
"...................................MMMnnnnZZSS0WWWWWXXX2P11UUUUUUU..............................",
"......................................nnnnZZSS0WWWWWXXX2113444UUU...............................",
"........................................nZZZSS00WWWWXXX21144444.................................",
"........................................vZZZSS00000V5221d444444................................."};
