/* XPM */
static char *dummy[]={
"96 96 47 1",
". c #3D253B",
"a c #150606",
"b c #1a0807",
"c c #200a09",
"d c #211611",
"n c #250c0a",
"# c #261511",
"v c #2a0e0b",
"f c #2d0f0c",
"P c #32110d",
"p c #35130d",
"m c #38140e",
"k c #3c150f",
"D c #3f110e",
"S c #411810",
"e c #42100e",
"g c #4f120d",
"x c #4f2013",
"Q c #592716",
"h c #62160a",
"M c #70341b",
"i c #821c06",
"q c #962004",
"y c #9d2103",
"B c #c03503",
"l c #c33b04",
"t c #d45b0b",
"o c #d6600d",
"A c #e17411",
"u c #e68217",
"s c #e7881a",
"z c #eb9522",
"r c #ed9f27",
"w c #efa52b",
"I c #f0a82c",
"C c #f7c13a",
"F c #f8c53c",
"G c #fdd847",
"E c #fedb49",
"H c #ffe364",
"L c #ffe673",
"N c #fff1b1",
"O c #fff2b6",
"K c #fff3bd",
"J c #fff5c5",
"R c #fff6cf",
"j c #ffffff",
"................................................................................................",
"................................................................................................",
"................................................................................................",
"................................................................................................",
"................................................................................................",
"................................................................................................",
"................................................................................................",
"................................................................................................",
"................................................................................................",
"................................................................................................",
"................................................................................................",
"................................................................................................",
"................................................................................................",
"................................................................................................",
"................................................................................................",
"................................................................................................",
"................................................................................................",
"................................................................................................",
"................................................................................................",
"................................................................................................",
"................................................................................................",
"................................................................................................",
"........................................................#.......................................",
"................................................................................................",
"................................................................................................",
"................................................................................................",
"................................................................................................",
"................................................................................................",
"................................................................................................",
"................................................................................................",
"................................................................................................",
"................................................................................................",
"................................................................................................",
"................................................................................................",
"................................................................................................",
"................................................................................................",
"................................................................................................",
"................................................................................................",
"................................................................................................",
"................................................................................................",
"................................................................................................",
"................................................................................................",
"................................................................................................",
".........................................a......a...............................................",
"...............................................a................................................",
"..............................................baa...............................................",
".............................................bbb................................................",
".............................................bbb................................................",
".............................................bbba.c.cc..........................................",
"............................................bbbb..cccdcc........................................",
"............................................bbbb.cccccc.........................................",
"............................................bbbbcccccccc........................................",
"............................................bbbbcccccccc........................................",
"............................................bbb..ceeecc.........................................",
"............................................bbb..eeeecc.........................................",
"............................................bbb.feeeecc.........................................",
"............................................bbb.feeeecggg.......................................",
"............................................bbb.fffcccgggg......................................",
"............................................bbb.fffcccgggg......................................",
"........................................hhhhbbaffffcc..gg............ii.........................",
".......................................hjhhhhaakkffcc...............iiii........................",
"......................................lhhjhhhakkfffc................iiii........................",
"......................................lhhjhhhkkkfffc.................iii........................",
".....................................llhhhjhhlkkfff.............................................",
".....................................lllhhhjllkmmffn............................................",
".....................................lllllllllmmmffn............................................",
"......................................llllllooommppp..qqqqq.....................................",
"......................................llllooooorrrrrrqqqqqq.....................................",
"........................................lloooorrrrrrrrrqqqqq....................................",
".......................................aaooooorrrrrrrrrqqqqq....................................",
"......................................aaaooooorrrrrrrrrqqqqq....................................",
"......................................aaaooooorrrrrrrrrqsssstt..................................",
".....................................aaaaaoooorrrrrrrrrssssssst.................................",
".....................................aaaanoooorruuuuurssssssssst................................",
"....................................aaaaannvooouuuuuusssssssssss................................",
".....................................awwwwwwxxyuuuuuusssssssssss................................",
"....................................aawwwwwwxxyuuuuuusssssssssss................................",
"......................................wwwwwwwxyuuuuuusssssssssss................................",
"......................................wwwwwwwxzuAAAAAAAssssssss.................................",
"......................................wwwwwwABjCCCCAAAAssssssss.................................",
".....................................nwwwwwwACCjCCCCCAAAssssssD.................................",
"......................................BAwwAAACCCjEEEEEAAAsssDD..................................",
".....................................vBAAAAACCCCEjEEEEEAAuuDDDD.................................",
"....................................vvBBAAFGGGGGGGHHEEEEAu.DDD..................................",
"...................................vvvBBuFGGGGGGGGCCCCCCCuI.D...................................",
"...................................vvvuuFGGGGJJJJJCCCCCCCCI.....................................",
"..................................cvvuuuFGGGJJJJJJJCCCCCCCCbbb..................................",
"................................ccccvuuuFGGGJJJJJJKKKKKCCCCebb..................................",
"................................ccccuuuuuGGGJJJJJKKKKKKKCCCepppb................................",
"................................ccccuuuuuGGLJJJJJJJJKKKKKCCpppppb...............................",
"................................ccccuuuuuGLLJJJJJJJJJKKKKCCpppppp...............................",
"................................cccMuuuuuGLLLJJJJJJJJKKKKNCpppppp...............................",
".................................ccMMuuuuuLLLOOOJJJJKKKKNNCppppppp..............................",
".................................ccMMMuuuuLLOOOOOJJKKKKKNNNpppppp...............................",
"..................................ccMMcPuuuLOOOOOOOKKKNNNNNpppp.................................",
"...................................ccccPPQQQOOOOOOORRNNNNNFSS..................................."};
