/* XPM */
static char *dummy[]={
"96 96 51 1",
". c #3D253B",
"a c #150606",
"r c #180707",
"j c #200a09",
"h c #211611",
"b c #260d0a",
"c c #271510",
"d c #2b0f0b",
"L c #2d0f0c",
"p c #2e100c",
"# c #2f1310",
"D c #32110d",
"H c #35130d",
"f c #38140e",
"V c #3f1710",
"q c #46110e",
"N c #461b11",
"m c #491d12",
"W c #552415",
"A c #63160a",
"e c #65170a",
"T c #693019",
"K c #741a08",
"S c #803e1e",
"g c #861d06",
"U c #864220",
"P c #8c1e05",
"i c #962004",
"k c #b22601",
"y c #bb2b01",
"o c #c13703",
"v c #c33a04",
"l c #d35a0b",
"G c #d45b0b",
"n c #e57f16",
"u c #e68217",
"B c #ec9a25",
"z c #f2b031",
"C c #f5b936",
"w c #f6be38",
"t c #f8c53c",
"J c #facb40",
"R c #fcd445",
"x c #fdd847",
"F c #ffe364",
"E c #ffe469",
"M c #ffefa8",
"Q c #fff1b1",
"I c #fff3bd",
"O c #fff7d0",
"s c #ffffff",
"................................................................................................",
"................................................................................................",
"................................................................................................",
"................................................................................................",
"................................................................................................",
"................................................................................................",
"................................................................................................",
"................................................................................................",
"................................................................................................",
"................................................................................................",
"................................................................................................",
"................................................................................................",
"................................................................................................",
"................................................................................................",
"................................................................................................",
"................................................................................................",
"................................................................................................",
"................................................................................................",
"................................................................................................",
"................................................................................................",
"................................................................................................",
"................................................................................................",
"................................................................................................",
"................................................................................................",
"................................................................................................",
"........................................................##......................................",
"........................................................#.......................................",
"................................................................................................",
"................................................................................................",
"................................................................................................",
"................................................................................................",
"................................................................................................",
"................................................................................................",
"................................................................................................",
"................................................................................................",
"................................................................................................",
"................................................................................................",
"................................................................................................",
"................................................................................................",
"................................................................................................",
"................................................................................................",
".................................................a..............................................",
"................................................aa..............................................",
".........................................a......aaa.............................................",
".........................................aaa....aa..............................................",
"........................................aaaa.....a..............................................",
".........................................aaaa.aaaa..............................................",
".........................................aaaaaaaaa..............................................",
".........................................aaaa.aaa...............................................",
"..........................................aaa.baa...aa..........................................",
"..........................................aaabbaa..aac..........................................",
"..........................................aaabba...aaaaa........................................",
"..........................................aabbbb..dadaaa........................................",
"...........................................abbbaaddddda.........................................",
"..........................................aabbba.ddddaa.........................................",
"..........................................aabbbadeeeeaa.........................................",
"...........................................bbbb.deeeee..........................................",
"...........................................bbbb.deeeee..........................................",
"...........................................bbbbddeeeee..........................................",
"...........................................bbbbdddeee...........................................",
"...........................................bbbbdffddd...........................................",
"...........................................bbb.dfffddgggg.......................................",
"..........................................bbbb.dfffddggggg...........h..........................",
".........................................iiiiijdfffddggggg..........kk..........................",
"........................................iiiiiiiffffd.ggggg.........kkkk.........................",
"........................................iiiiiiifffff..ggg.........kkkkk.........................",
".......................................liiiiiiimffff..............kkkkk.........................",
".......................................liiiiiiilffff...............kkkk.........................",
".......................................liiiinnnnmfffa.ooo.......................................",
".......................................lliinnnnnnffpooooooo.....................................",
".......................................lllnnnnnnnnqqoooooooo....................................",
"......................................rllnnnnnnnsnqooooooooo....................................",
".....................................rrrlnnnnntttsttoooooooo....................................",
".....................................rrrrnnnntttttstttooouuu....................................",
"....................................rrrvvvvnnttttttsttouuuuuuu..................................",
"..................................rrrrvvvvvvntttttttttouuuuuuu..................................",
".................................rrrrvvvvvvvvtttttttttttttuuuuu.................................",
".................................rrrvvvvvvvvvttttwwwtttttttuuuu.................................",
"..................................rrvvvvvvvvvtttwwwtttttttttuuu.................................",
".................................rrrvvvvvvxxvytwzzztttttttttuuAA................................",
"....................................vvvvxxxxxBtzCCCCCttttttttuAA................................",
".....................................vvvxxxxxxCCCCCCCCCttttttAA.................................",
".....................................DvxxxxxxxCEFFFFFFCCtttttAA.................................",
"......................................GxxxxxxEEFFFFFFFtCtttttAA.................................",
"....................................HHGzxxxxEEFFFFFFFFFtttttAAA.................................",
"...................................HHHzzzxxxEEIIIIFFFFFtttttAA..................................",
"...................................HHzzzzzEEEIIIIIIsFFFtttJK....................................",
".................................LLLzzzzzEEEIIIIIIIIsFFtttJKb...................................",
"................................LLLLzzzzzEEIIIIIIIIMsMMMMtJKbbb.................................",
"................................LLLLzzzzzEEIIIIIIIMMMsMMMtKKNNbbb...............................",
"................................LLLLzzzzzEEIIIOOIMMMMMMMMMPKNNNbb...............................",
"................................LLLLLzzzzzEIOOOOQMMMMMMMMMPNNNNNb...............................",
"................................LLLLLLzzzzzROOOOQMMMMMMMMMPNNNNNNN..............................",
".................................LLLLLLzzzzOOOOQQMMMMMMMMMNNNNNNNb..............................",
".................................LLLLLLLSSTOOOOQQMMMMMMMMMNNNNNN................................",
"..................................LLLULLLVTJOOOQQMMMMMMMMMWNNN.................................."};
